<?xml version="1.0" standalone="no"?>
<!DOCTYPE svg PUBLIC "-//W3C//DTD SVG 20010904//EN"
 "http://www.w3.org/TR/2001/REC-SVG-20010904/DTD/svg10.dtd">
<svg version="1.0" xmlns="http://www.w3.org/2000/svg"
 width="799.000000pt" height="799.000000pt" viewBox="0 0 799.000000 799.000000"
 preserveAspectRatio="xMidYMid meet">
<metadata>
Created by potrace 1.14, written by Peter Selinger 2001-2017
</metadata>
<g transform="translate(290.500000,799.000000) scale(0.100000,-0.100000)"
fill="#666" stroke="none">
<path d="M898 7980 c-117 -10 -314 -51 -390 -81 -195 -77 -294 -166 -380 -344
-40 -85 -77 -234 -97 -400 -13 -101 -31 -610 -25 -695 47 -669 55 -756 115
-1180 61 -438 72 -500 165 -930 76 -356 82 -379 190 -715 77 -243 118 -330
217 -462 108 -142 190 -198 328 -223 111 -20 252 19 347 97 52 43 166 192 216
283 34 63 98 245 190 544 39 124 114 450 192 830 21 102 113 711 144 951 5 44
22 224 37 400 23 280 26 364 24 675 -1 195 -6 393 -12 440 -44 372 -152 567
-378 684 -97 50 -251 95 -391 115 -111 15 -370 21 -492 11z"/>
<path d="M925 1576 c-189 -50 -238 -79 -372 -220 -107 -111 -149 -187 -190
-341 -50 -191 -28 -397 64 -585 29 -60 57 -95 147 -185 90 -91 125 -118 186
-148 108 -52 238 -87 324 -87 146 0 350 83 468 189 142 130 203 231 253 421
37 139 37 237 1 385 -43 174 -79 238 -209 369 -123 123 -161 147 -313 192
-129 38 -243 41 -359 10z"/>
</g>
</svg>
