<?xml version="1.0" encoding="UTF-8" standalone="no"?>
<svg
   xmlns:dc="http://purl.org/dc/elements/1.1/"
   xmlns:cc="http://creativecommons.org/ns#"
   xmlns:rdf="http://www.w3.org/1999/02/22-rdf-syntax-ns#"
   xmlns:svg="http://www.w3.org/2000/svg"
   xmlns="http://www.w3.org/2000/svg"
   xmlns:sodipodi="http://sodipodi.sourceforge.net/DTD/sodipodi-0.dtd"
   xmlns:inkscape="http://www.inkscape.org/namespaces/inkscape"
   version="1.0"
   width="103"
   height="103"
   viewBox="0 0 77.250008 77.250002"
   preserveAspectRatio="xMidYMid meet"
   id="svg28"
   sodipodi:docname="W.svg"
   inkscape:version="0.92.2 (5c3e80d, 2017-08-06)">
  <defs
     id="defs32" />
  <sodipodi:namedview
     pagecolor="#ffffff"
     bordercolor="#666666"
     borderopacity="1"
     objecttolerance="10"
     gridtolerance="10"
     guidetolerance="10"
     inkscape:pageopacity="0"
     inkscape:pageshadow="2"
     inkscape:window-width="1680"
     inkscape:window-height="979"
     id="namedview30"
     showgrid="false"
     fit-margin-top="3"
     fit-margin-left="3"
     fit-margin-bottom="3"
     fit-margin-right="3"
     units="px"
     inkscape:zoom="2.765625"
     inkscape:cx="-2.2703785"
     inkscape:cy="47.858647"
     inkscape:window-x="0"
     inkscape:window-y="0"
     inkscape:window-maximized="1"
     inkscape:current-layer="svg28" />
  <metadata
     id="metadata2">
Created by potrace 1.14, written by Peter Selinger 2001-2017
<rdf:RDF>
  <cc:Work
     rdf:about="">
    <dc:format>image/svg+xml</dc:format>
    <dc:type
       rdf:resource="http://purl.org/dc/dcmitype/StillImage" />
    <dc:title></dc:title>
  </cc:Work>
</rdf:RDF>
</metadata>
  <g
     id="g853"
     transform="translate(113.3661,-23.393111)">
    <path
       d="m -45.923725,30.230509 c -2.7,0.8 -6.2,1.6 -7.7,2 -2.8,0.6 -2.8,0.6 -0.8,2.6 2,2 6.6,2.9 5.5,1 -0.3,-0.6 -0.1,-1 0.6,-1 0.6,0 0.9,0.8 0.7,1.8 -0.4,1.4 0.1,1.8 2,1.7 2,0 2.7,-0.7 3.4,-3.2 0.5,-1.8 1.3,-3.5 1.8,-3.8 1.2,-0.7 1.3,-2.5 0.3,-2.4 -0.5,0 -3,0.6 -5.8,1.3 z m 0.9,4.1 c -0.4,1.7 -0.2,2.5 0.7,2.5 0.7,0 0.9,0.3 0.6,0.7 -0.4,0.3 -1.8,-0.6 -3.2,-2.1 -2.3,-2.4 -2.3,-2.7 -0.5,-2.1 1.1,0.4 2,0.2 2,-0.4 0,-0.6 0.2,-1.1 0.5,-1.1 0.3,0 0.3,1.1 -0.1,2.5 z"
       id="path10"
       inkscape:connector-curvature="0"
       style="fill:#000000;stroke:none;stroke-width:0.1" />
    <path
       d="m -100.22372,41.530509 c -1.2,0.2 -2,0.9 -1.6,1.4 0.3,0.6 -0.4,0.7 -1.8,0.4 -1.3,-0.3 -3.6,-0.2 -5.1,0.4 l -2.6,1 3.2,3.3 c 1.8,1.8 3.8,3.1 4.5,3 1.5,-0.3 1.6,1.5 0.1,2 -0.6,0.2 3.2,8.7 8.699995,19.6 8.5,16.7 9.7,19.5 8.6,21.2 -1.5,2.5 -1,2.5 7.9,0.3 l 6.9,-1.6 -1.9,-2.1 c -1.5,-1.6 -1.9,-3.1 -1.5,-6.4 0.2,-3 0,-4.1 -0.8,-3.6 -0.7,0.4 -0.8,0.3 -0.4,-0.5 0.4,-0.6 1.2,-0.9 1.7,-0.6 0.5,0.4 1,-1.3 1,-3.7 0.1,-2.4 0.3,-6.5 0.3,-9.2 0.2,-4.5 0.4,-5 3,-5.7 2.3,-0.6 2.5,-0.5 1.6,0.7 -1,1.1 -0.9,1.5 0.4,2 0.9,0.3 1.6,1.4 1.6,2.5 0,1 0.8,2.3 1.8,2.8 0.9,0.6 1.3,1.1 0.9,1.1 -1,0 3.6,8.4 6.1,11.2 1,1.2 1.3,2.9 0.9,5.3 -0.3,1.9 -0.2,3.5 0.4,3.5 0.5,0 0.9,-0.4 0.9,-0.8 0,-0.4 1,-0.8 2.3,-0.8 1.2,0 4.4,-0.4 7.1,-0.8 4.2,-0.8 4.7,-1.1 3.3,-2.1 -1.3,-0.9 -1.7,-2.8 -1.7,-7.9 0,-5.3 -0.4,-7 -2,-8.6 -1.2,-1.2 -1.8,-2.5 -1.5,-3 0.3,-0.5 -0.5,-1.6 -1.7,-2.5 -2.1,-1.5 -2.1,-1.6 -0.3,-1.3 1.2,0.2 2,-0.3 2,-1.2 0,-0.8 0.7,-1.5 1.5,-1.5 0.9,0 1.5,0.9 1.4,2.2 -0.1,1.3 0.3,2 0.8,1.7 0.5,-0.3 0.8,-3.6 0.8,-7.2 -0.1,-3.7 0.1,-7.5 0.5,-8.6 0.9,-2.1 -0.5,-5 -2.6,-5.2 -0.8,0 -1.6,-0.2 -1.9,-0.3 -0.3,-0.1 -1.7,-0.4 -3.2,-0.6 l -2.8,-0.4 -0.2,10.2 c -0.3,15.1 -0.3,15.2 -1.9,14.8 -0.8,-0.2 -2,-0.4 -2.6,-0.4 -0.9,0 -1,-0.4 -0.3,-1.2 0.7,-0.9 0.5,-1.6 -0.6,-2.6 -0.8,-0.7 -2.4,-3 -3.5,-5 -1,-2.1 -3.6,-5.6 -5.7,-7.8 -2.1,-2.3 -3.6,-4.4 -3.3,-4.7 0.5,-0.6 -4,0.5 -4.7,1.1 -0.1,0.1 -1.5,6.7 -3.1,14.6 l -2.8,14.4 -2.6,-5 c -1.4,-2.8 -4.6,-9.1 -7.2,-14 -3.4,-6.6 -4.5,-9.7 -4.1,-11.8 0.6,-2.8 0.4,-2.9 -4.199995,-2 z m 49.899995,2 c 1.3,1.6 1.2,1.7 -0.3,0.4 -1,-0.7 -1.8,-1.5 -1.8,-1.7 0,-0.8 0.8,-0.3 2.1,1.3 z m -49.3,7.8 c -0.3,0.3 -0.899995,-0.2 -1.199995,-1.2 -0.6,-1.4 -0.5,-1.5 0.5,-0.6 0.699995,0.7 0.999995,1.5 0.699995,1.8 z m 29.8,6.5 c 0,1.2 -0.4,1.6 -0.9,1.1 -0.5,-0.5 -0.6,-1.4 -0.3,-2 1,-1.5 1.2,-1.4 1.2,0.9 z m 19.1,0.2 c -0.3,0.8 -0.6,0.5 -0.6,-0.6 -0.1,-1.1 0.2,-1.7 0.5,-1.3 0.3,0.3 0.4,1.2 0.1,1.9 z m -28.6,10.1 c -1,0.9 -1.1,0.8 -0.5,-0.6 0.3,-1 0.9,-1.5 1.2,-1.2 0.3,0.3 0,1.1 -0.7,1.8 z m 27.2,1.4 c -0.7,0.2 -1.9,0.2 -2.5,0 -0.7,-0.3 -0.2,-0.5 1.2,-0.5 1.4,0 1.9,0.2 1.3,0.5 z"
       id="path12"
       inkscape:connector-curvature="0"
       style="fill:#000000;stroke:none;stroke-width:0.1" />
    <path
       d="m -47.023725,64.930509 c 0.5,3.5 1.3,4.6 2.3,3.5 0.4,-0.4 0.1,-1.1 -0.7,-1.6 -1.2,-0.8 -1.2,-1 -0.1,-1 1,0 1.1,-0.3 0.2,-1.3 -0.6,-0.8 -0.8,-1.7 -0.4,-2 0.3,-0.4 0.1,-0.7 -0.6,-0.7 -0.8,0 -1.1,1.1 -0.7,3.1 z"
       id="path16"
       inkscape:connector-curvature="0"
       style="fill:#000000;stroke:none;stroke-width:0.1" />
  </g>
</svg>
