<?xml version="1.0" standalone="no"?>
<!DOCTYPE svg PUBLIC "-//W3C//DTD SVG 20010904//EN"
 "http://www.w3.org/TR/2001/REC-SVG-20010904/DTD/svg10.dtd">
<svg version="1.0" xmlns="http://www.w3.org/2000/svg"
 width="128.000000pt" height="128.000000pt" viewBox="0 0 128.000000 128.000000"
 preserveAspectRatio="xMidYMid meet">
<metadata>
Created by potrace 1.14, written by Peter Selinger 2001-2017
</metadata>
<g transform="translate(0.000000,128.000000) scale(0.100000,-0.100000)"
fill="#000000" stroke="none">
<path d="M965 1223 c-11 -2 -27 -7 -35 -10 -8 -3 -19 -5 -24 -4 -5 1 -16 -1
-25 -5 -18 -8 -27 -10 -56 -13 -13 -1 -3 -9 28 -22 27 -10 54 -16 60 -13 7 4
9 4 5 -1 -4 -4 12 -20 35 -35 23 -16 59 -44 79 -63 33 -31 37 -33 34 -14 -3
12 -5 24 -6 27 -2 3 -2 8 -1 12 0 4 -6 38 -15 76 -16 73 -20 76 -79 65z m50
-23 c3 -5 2 -10 -4 -10 -5 0 -13 5 -16 10 -3 6 -2 10 4 10 5 0 13 -4 16 -10z"/>
<path d="M564 1172 c3 -5 -8 -6 -25 -4 -18 3 -29 0 -29 -7 0 -7 -5 -9 -11 -6
-12 8 -108 -29 -159 -60 -50 -31 -149 -132 -167 -169 -8 -17 -23 -47 -33 -66
-11 -19 -17 -41 -15 -47 2 -7 0 -13 -4 -13 -24 0 -44 -241 -21 -255 5 -3 6
-13 3 -22 -4 -10 -2 -14 4 -10 6 4 9 -2 6 -16 -8 -45 117 -257 152 -257 4 0
13 -7 20 -17 21 -28 33 -6 30 58 -2 43 1 62 10 66 16 6 13 35 -9 85 -9 21 -16
43 -16 50 0 6 -7 3 -15 -8 -14 -18 -15 -17 -4 7 8 20 8 32 0 48 -7 12 -14 51
-17 89 -3 37 -13 84 -21 105 -13 31 -20 36 -37 31 -12 -4 -18 -3 -14 1 4 5 4
13 -1 19 -4 6 -11 25 -14 43 -6 31 -4 33 31 42 20 5 58 13 83 16 55 8 119 55
120 88 0 21 1 21 8 3 14 -36 25 4 23 81 -2 60 0 73 13 73 8 0 14 5 13 11 -2 6
3 14 10 16 10 4 13 -4 12 -28 -4 -68 -1 -90 13 -83 10 6 10 4 0 -7 -17 -18
-16 -29 2 -29 11 0 15 11 15 38 1 31 2 34 11 19 6 -10 9 -24 6 -30 -3 -9 23
-12 97 -13 68 0 112 -5 136 -16 44 -19 90 -8 70 17 -7 9 -10 18 -6 22 3 3 6 1
6 -5 0 -39 99 -37 101 1 1 21 2 21 6 2 3 -11 11 -24 19 -28 17 -10 18 -60 2
-86 -9 -15 -9 -23 1 -35 17 -20 61 -21 61 -2 0 11 7 13 29 6 16 -4 32 -6 35
-3 3 3 13 0 21 -7 11 -9 8 1 -7 31 -17 31 -30 44 -46 45 -30 2 -41 14 -12 14
19 0 20 2 10 15 -7 8 -16 12 -21 9 -5 -3 -8 0 -7 8 2 7 -3 12 -10 10 -8 -1
-11 2 -8 7 8 12 -65 69 -81 64 -7 -3 -13 -12 -13 -21 0 -15 -2 -15 -10 -2 -5
8 -10 22 -10 30 0 12 2 12 9 1 6 -9 11 -10 15 -2 7 11 -54 44 -81 44 -7 0 -13
4 -13 8 0 4 -15 11 -32 15 -18 4 -40 9 -48 11 -35 9 -191 13 -186 5z m120 -62
c10 -13 9 -13 -6 -1 -10 7 -18 21 -17 30 0 13 1 14 6 1 3 -8 11 -22 17 -30z
m-145 -12 c-9 -16 -14 -19 -17 -9 -2 7 2 17 9 22 20 13 21 11 8 -13z m104 -3
c-3 -9 -8 -14 -10 -11 -3 3 -2 9 2 15 9 16 15 13 8 -4z m217 -15 c0 -5 -4 -10
-9 -10 -6 0 -13 5 -16 10 -3 6 1 10 9 10 9 0 16 -4 16 -10z m-444 -34 c2 -14
1 -14 -3 0 -3 9 -11 13 -19 10 -9 -3 -12 -1 -9 5 10 15 30 5 31 -15z m414 15
c0 -6 -4 -13 -10 -16 -5 -3 -10 1 -10 9 0 9 5 16 10 16 6 0 10 -4 10 -9z
m-495 -11 c4 -6 -1 -7 -11 -3 -13 5 -16 3 -11 -10 3 -9 2 -19 -3 -22 -6 -4
-10 -1 -10 5 0 6 -6 8 -12 4 -7 -4 -4 2 6 14 21 24 32 27 41 12z m48 -35 c-3
-9 -8 -14 -10 -11 -3 3 -2 9 2 15 9 16 15 13 8 -4z m407 5 c0 -5 -4 -10 -10
-10 -5 0 -10 5 -10 10 0 6 5 10 10 10 6 0 10 -4 10 -10z m-590 -500 c0 -5 -4
-10 -10 -10 -5 0 -10 5 -10 10 0 6 5 10 10 10 6 0 10 -4 10 -10z m80 -110 c-6
-11 -13 -20 -16 -20 -2 0 0 9 6 20 6 11 13 20 16 20 2 0 0 -9 -6 -20z m40 -26
c0 -8 -5 -12 -10 -9 -6 4 -8 11 -5 16 9 14 15 11 15 -7z m-27 -39 c4 -8 2 -17
-3 -20 -6 -4 -10 -4 -10 -1 0 2 -3 11 -6 20 -3 9 -2 16 4 16 5 0 12 -7 15 -15z"/>
<path d="M151 1049 c-47 -10 -89 -23 -95 -29 -22 -22 16 -149 44 -150 12 0 41
61 34 72 -4 7 -3 8 4 4 6 -3 16 3 22 14 6 11 7 20 3 20 -4 0 3 7 15 16 12 8
20 20 17 25 -4 5 0 9 8 9 8 0 22 9 32 20 21 24 23 24 -84 -1z m-55 -44 c10
-10 11 -15 4 -15 -7 0 -10 -8 -7 -19 3 -14 1 -18 -9 -14 -8 3 -14 18 -14 34 0
33 5 35 26 14z"/>
<path d="M875 956 c-27 -8 -62 -16 -77 -20 -28 -6 -28 -6 -8 -26 20 -20 66
-29 55 -10 -3 6 -1 10 6 10 6 0 9 -8 7 -18 -4 -14 1 -18 20 -17 20 0 27 7 34
32 5 18 13 35 18 38 12 7 13 25 3 24 -5 0 -30 -6 -58 -13z m9 -41 c-4 -17 -2
-25 7 -25 7 0 9 -3 6 -7 -4 -3 -18 6 -32 21 -23 24 -23 27 -5 21 11 -4 20 -2
20 4 0 6 2 11 5 11 3 0 3 -11 -1 -25z"/>
<path d="M332 843 c-12 -2 -20 -9 -16 -14 3 -6 -4 -7 -18 -4 -13 3 -36 2 -51
-4 l-26 -10 32 -33 c18 -18 38 -31 45 -30 15 3 16 -15 1 -20 -6 -2 32 -87 87
-196 85 -167 97 -195 86 -212 -15 -25 -10 -25 79 -3 l69 16 -19 21 c-15 16
-19 31 -15 64 2 30 0 41 -8 36 -7 -4 -8 -3 -4 5 4 6 12 9 17 6 5 -4 10 13 10
37 1 24 3 65 3 92 2 45 4 50 30 57 23 6 25 5 16 -7 -10 -11 -9 -15 4 -20 9 -3
16 -14 16 -25 0 -10 8 -23 18 -28 9 -6 13 -11 9 -11 -10 0 36 -84 61 -112 10
-12 13 -29 9 -53 -3 -19 -2 -35 4 -35 5 0 9 4 9 8 0 4 10 8 23 8 12 0 44 4 71
8 42 8 47 11 33 21 -13 9 -17 28 -17 79 0 53 -4 70 -20 86 -12 12 -18 25 -15
30 3 5 -5 16 -17 25 -21 15 -21 16 -3 13 12 -2 20 3 20 12 0 8 7 15 15 15 9 0
15 -9 14 -22 -1 -13 3 -20 8 -17 5 3 8 36 8 72 -1 37 1 75 5 86 9 21 -5 50
-26 52 -8 0 -16 2 -19 3 -3 1 -17 4 -32 6 l-28 4 -2 -102 c-3 -151 -3 -152
-19 -148 -8 2 -20 4 -26 4 -9 0 -10 4 -3 12 7 9 5 16 -6 26 -8 7 -24 30 -35
50 -10 21 -36 56 -57 78 -21 23 -36 44 -33 47 5 6 -40 -5 -47 -11 -1 -1 -15
-67 -31 -146 l-28 -144 -26 50 c-14 28 -46 91 -72 140 -34 66 -45 97 -41 118
6 28 4 29 -42 20z m499 -20 c13 -16 12 -17 -3 -4 -10 7 -18 15 -18 17 0 8 8 3
21 -13z m-493 -78 c-3 -3 -9 2 -12 12 -6 14 -5 15 5 6 7 -7 10 -15 7 -18z
m298 -65 c0 -12 -4 -16 -9 -11 -5 5 -6 14 -3 20 10 15 12 14 12 -9z m191 -2
c-3 -8 -6 -5 -6 6 -1 11 2 17 5 13 3 -3 4 -12 1 -19z m-286 -101 c-10 -9 -11
-8 -5 6 3 10 9 15 12 12 3 -3 0 -11 -7 -18z m272 -14 c-7 -2 -19 -2 -25 0 -7
3 -2 5 12 5 14 0 19 -2 13 -5z"/>
<path d="M975 840 c-4 -6 3 -34 14 -64 22 -61 29 -181 12 -235 -6 -19 -8 -39
-4 -45 3 -6 3 -8 -2 -4 -4 4 -17 -11 -28 -33 -15 -30 -17 -43 -8 -52 27 -27
12 -45 -51 -60 -36 -8 -62 -19 -60 -26 1 -6 -1 -10 -5 -9 -5 0 -17 -2 -28 -6
-77 -30 -93 -34 -99 -29 -3 4 -7 -5 -7 -18 -1 -17 -3 -19 -6 -6 -4 14 -15 17
-61 16 -31 -1 -65 1 -74 6 -13 5 -18 3 -18 -9 0 -17 -16 -22 -22 -6 -2 6 -18
6 -42 0 -49 -11 -56 -7 -56 34 0 36 -15 57 -36 49 -9 -3 -14 2 -14 15 0 11 -7
22 -15 26 -17 6 -18 4 -6 -45 5 -21 5 -43 0 -50 -4 -7 -3 -22 3 -32 7 -14 7
-18 -2 -12 -8 5 -10 -5 -8 -36 4 -53 28 -66 28 -15 0 20 5 36 10 36 6 0 10
-20 10 -44 0 -47 -1 -47 96 -76 43 -13 69 -7 58 13 -3 7 1 4 9 -5 11 -14 20
-16 45 -9 23 7 30 6 26 -3 -3 -9 7 -13 31 -14 19 -1 35 3 35 8 0 5 15 8 33 7
21 -1 31 2 29 11 -1 6 2 12 7 12 5 0 12 -6 14 -12 3 -7 6 -4 6 7 1 15 4 16 10
7 6 -11 16 -10 52 4 24 9 49 23 56 31 6 8 17 16 25 17 28 6 47 19 53 35 2 9
15 21 27 26 13 6 22 17 20 24 -1 7 2 10 7 7 23 -15 116 151 106 187 -4 15 -4
18 3 8 7 -9 13 1 22 37 12 51 7 92 -11 92 -5 0 -9 12 -9 26 0 15 4 23 11 19 6
-4 8 -13 5 -21 -3 -8 -2 -14 3 -14 4 0 8 20 9 45 0 25 -4 43 -8 40 -13 -8 -18
18 -8 38 5 10 7 21 4 25 -3 3 -6 0 -6 -7 0 -9 -4 -8 -15 3 -18 18 -20 37 -2
34 7 -2 11 6 9 22 -4 36 -21 49 -36 28 -16 -21 -86 -25 -86 -5 0 8 -3 9 -8 1
-10 -16 -44 -14 -38 3 6 15 0 17 -9 3z m125 -62 c0 -6 -6 -5 -15 2 -8 7 -15
14 -15 16 0 2 7 1 15 -2 8 -4 15 -11 15 -16z m-65 -8 c-3 -5 -11 -10 -16 -10
-6 0 -7 5 -4 10 3 6 11 10 16 10 6 0 7 -4 4 -10z m0 -90 c-3 -5 -1 -10 5 -10
6 0 8 -5 4 -11 -4 -8 -9 -7 -15 2 -7 12 -3 29 7 29 3 0 2 -4 -1 -10z m108 -15
c-3 -9 -8 -14 -10 -11 -3 3 -2 9 2 15 9 16 15 13 8 -4z m-740 -340 c-3 -9 -8
-14 -10 -11 -3 3 -2 9 2 15 9 16 15 13 8 -4z m-3 -71 c0 -8 -5 -12 -10 -9 -6
4 -8 11 -5 16 9 14 15 11 15 -7z m615 6 c3 -5 1 -10 -4 -10 -6 0 -11 5 -11 10
0 6 2 10 4 10 3 0 8 -4 11 -10z m-395 -20 c-13 -9 -13 -11 0 -20 12 -7 10 -9
-7 -7 -28 2 -26 32 1 35 17 1 18 -1 6 -8z m67 -15 c0 -8 -4 -15 -9 -15 -10 0
-11 14 -1 23 9 10 10 9 10 -8z m143 -21 c0 -1 -3 -9 -6 -18 -5 -13 -8 -13 -20
-1 -19 19 -18 24 6 22 11 -1 20 -2 20 -3z m-183 -49 c-7 -13 -13 -20 -15 -15
-2 6 -10 3 -19 -5 -8 -8 -20 -15 -26 -15 -8 0 -7 3 2 9 7 5 11 14 7 20 -4 7
-1 9 7 5 8 -3 21 2 28 10 21 23 28 19 16 -9z m-127 -30 c7 -9 8 -15 2 -15 -5
0 -12 7 -16 15 -3 8 -4 15 -2 15 2 0 9 -7 16 -15z"/>
<path d="M864 609 c5 -35 13 -46 23 -35 4 4 1 11 -7 16 -12 8 -12 10 -1 10 10
0 11 3 2 13 -6 8 -8 17 -4 20 3 4 1 7 -6 7 -8 0 -11 -11 -7 -31z"/>
<path d="M1167 395 c-15 -30 -39 -74 -54 -98 -15 -23 -26 -46 -25 -50 1 -5 -2
-6 -6 -3 -5 3 -17 -3 -27 -14 -16 -18 -8 -30 9 -13 3 4 14 8 24 9 9 2 33 6 52
10 19 4 40 7 45 6 6 -1 2 4 -8 12 -16 13 -16 14 0 27 11 9 14 10 9 2 -4 -7 -3
-13 3 -13 5 0 12 6 14 13 4 9 6 9 6 -1 1 -19 21 -4 21 15 0 9 -3 14 -6 10 -13
-13 -36 24 -30 48 5 19 2 25 -9 25 -14 0 -14 3 1 25 9 13 14 29 12 35 -2 6
-16 -14 -31 -45z"/>
<path d="M210 220 c0 -6 7 -13 15 -16 10 -4 12 -11 7 -18 -5 -6 -2 -38 6 -73
13 -59 16 -63 42 -63 29 0 50 28 30 40 -7 5 -8 15 -1 33 9 24 7 28 -19 42 -17
9 -30 19 -30 23 -1 12 -50 44 -50 32z"/>
<path d="M354 105 c-6 -15 2 -35 15 -35 5 0 9 11 9 25 0 27 -15 34 -24 10z"/>
<path d="M400 90 c0 -5 10 -10 23 -10 18 0 19 2 7 10 -19 13 -30 13 -30 0z"/>
</g>
</svg>
